# https://github.com/mikedh/trimesh
v 414633.80997116 1450340.77174971 24.00000000 0.65882353 0.33333333 0.96862745
v 414634.43175134 1450318.11775542 24.00000000 0.65882353 0.33333333 0.96862745
v 414618.59425641 1450318.16717030 24.00000000 0.65882353 0.33333333 0.96862745
v 414617.98715862 1450340.34359286 24.00000000 0.65882353 0.33333333 0.96862745
v 414633.80997116 1450340.77174971 27.00000000 0.65882353 0.33333333 0.96862745
v 414634.43175134 1450318.11775542 27.00000000 0.65882353 0.33333333 0.96862745
v 414618.59425641 1450318.16717030 27.00000000 0.65882353 0.33333333 0.96862745
v 414617.98715862 1450340.34359286 27.00000000 0.65882353 0.33333333 0.96862745
f 3 4 1
f 1 2 3
f 5 8 7
f 7 6 5
f 5 6 1
f 1 6 2
f 6 7 2
f 2 7 3
f 8 5 4
f 4 5 1
f 7 8 3
f 3 8 4

