# https://github.com/mikedh/trimesh
v 414626.20945498 1450318.14340997 21.00000000 0.90980392 0.58823529 0.03921569
v 414618.59425641 1450318.16717030 21.00000000 0.90980392 0.58823529 0.03921569
v 414618.28552333 1450329.44475256 21.00000000 0.90980392 0.58823529 0.03921569
v 414626.20945498 1450329.44475256 21.00000000 0.90980392 0.58823529 0.03921569
v 414626.20945498 1450318.14340997 24.00000000 0.90980392 0.58823529 0.03921569
v 414618.59425641 1450318.16717030 24.00000000 0.90980392 0.58823529 0.03921569
v 414618.28552333 1450329.44475256 24.00000000 0.90980392 0.58823529 0.03921569
v 414626.20945498 1450329.44475256 24.00000000 0.90980392 0.58823529 0.03921569
f 3 4 1
f 1 2 3
f 5 8 7
f 7 6 5
f 5 6 1
f 1 6 2
f 6 7 2
f 2 7 3
f 8 5 4
f 4 5 1
f 7 8 3
f 3 8 4

