# https://github.com/mikedh/trimesh
v 414634.12086125 1450329.44475256 15.00000000 0.81176471 0.20784314 0.30980392
v 414634.43175134 1450318.11775542 15.00000000 0.81176471 0.20784314 0.30980392
v 414626.20945498 1450318.14340997 15.00000000 0.81176471 0.20784314 0.30980392
v 414626.20945498 1450329.44475256 15.00000000 0.81176471 0.20784314 0.30980392
v 414634.12086125 1450329.44475256 18.00000000 0.81176471 0.20784314 0.30980392
v 414634.43175134 1450318.11775542 18.00000000 0.81176471 0.20784314 0.30980392
v 414626.20945498 1450318.14340997 18.00000000 0.81176471 0.20784314 0.30980392
v 414626.20945498 1450329.44475256 18.00000000 0.81176471 0.20784314 0.30980392
f 3 4 1
f 1 2 3
f 5 8 7
f 7 6 5
f 5 6 1
f 1 6 2
f 6 7 2
f 2 7 3
f 8 5 4
f 4 5 1
f 7 8 3
f 3 8 4

