# https://github.com/mikedh/trimesh
v 414626.20945498 1450340.56608380 15.00000000 0.05098039 0.61568627 0.42745098
v 414633.80997116 1450340.77174971 15.00000000 0.05098039 0.61568627 0.42745098
v 414634.12086125 1450329.44475256 15.00000000 0.05098039 0.61568627 0.42745098
v 414626.20945498 1450329.44475256 15.00000000 0.05098039 0.61568627 0.42745098
v 414626.20945498 1450340.56608380 18.00000000 0.05098039 0.61568627 0.42745098
v 414633.80997116 1450340.77174971 18.00000000 0.05098039 0.61568627 0.42745098
v 414634.12086125 1450329.44475256 18.00000000 0.05098039 0.61568627 0.42745098
v 414626.20945498 1450329.44475256 18.00000000 0.05098039 0.61568627 0.42745098
f 3 4 1
f 1 2 3
f 5 8 7
f 7 6 5
f 5 6 1
f 1 6 2
f 6 7 2
f 2 7 3
f 8 5 4
f 4 5 1
f 7 8 3
f 3 8 4

