# https://github.com/mikedh/trimesh
v 414626.20945498 1450318.14340997 18.00000000 0.86274510 0.55686275 0.03529412
v 414618.59425641 1450318.16717030 18.00000000 0.86274510 0.55686275 0.03529412
v 414618.28552333 1450329.44475256 18.00000000 0.86274510 0.55686275 0.03529412
v 414626.20945498 1450329.44475256 18.00000000 0.86274510 0.55686275 0.03529412
v 414626.20945498 1450318.14340997 21.00000000 0.86274510 0.55686275 0.03529412
v 414618.59425641 1450318.16717030 21.00000000 0.86274510 0.55686275 0.03529412
v 414618.28552333 1450329.44475256 21.00000000 0.86274510 0.55686275 0.03529412
v 414626.20945498 1450329.44475256 21.00000000 0.86274510 0.55686275 0.03529412
f 3 4 1
f 1 2 3
f 5 8 7
f 7 6 5
f 5 6 1
f 1 6 2
f 6 7 2
f 2 7 3
f 8 5 4
f 4 5 1
f 7 8 3
f 3 8 4

