# https://github.com/mikedh/trimesh
v 414632.35167465 1450339.23173992 12.00000000 0.39215686 0.45490196 0.54509804
v 414632.88988398 1450319.62257353 12.00000000 0.39215686 0.45490196 0.54509804
v 414620.05387912 1450319.66262340 12.00000000 0.39215686 0.45490196 0.54509804
v 414619.52765819 1450338.88472890 12.00000000 0.39215686 0.45490196 0.54509804
v 414632.35167465 1450339.23173992 15.00000000 0.39215686 0.45490196 0.54509804
v 414632.88988398 1450319.62257353 15.00000000 0.39215686 0.45490196 0.54509804
v 414620.05387912 1450319.66262340 15.00000000 0.39215686 0.45490196 0.54509804
v 414619.52765819 1450338.88472890 15.00000000 0.39215686 0.45490196 0.54509804
f 3 4 1
f 1 2 3
f 5 8 7
f 7 6 5
f 5 6 1
f 1 6 2
f 6 7 2
f 2 7 3
f 8 5 4
f 4 5 1
f 7 8 3
f 3 8 4

