# https://github.com/mikedh/trimesh
v 414636.18175134 1450346.02174971 12.00000000 0.91764706 0.70196078 0.03137255
v 414638.68175134 1450346.02174971 12.00000000 0.91764706 0.70196078 0.03137255
v 414638.68175134 1450314.11775542 12.00000000 0.91764706 0.70196078 0.03137255
v 414638.68175134 1450312.86775542 12.00000000 0.91764706 0.70196078 0.03137255
v 414636.18175134 1450312.86775542 12.00000000 0.91764706 0.70196078 0.03137255
v 414636.18175134 1450344.77174971 12.00000000 0.91764706 0.70196078 0.03137255
v 414636.18175134 1450346.02174971 13.00000000 0.91764706 0.70196078 0.03137255
v 414638.68175134 1450346.02174971 13.00000000 0.91764706 0.70196078 0.03137255
v 414638.68175134 1450314.11775542 13.00000000 0.91764706 0.70196078 0.03137255
v 414638.68175134 1450312.86775542 13.00000000 0.91764706 0.70196078 0.03137255
v 414636.18175134 1450312.86775542 13.00000000 0.91764706 0.70196078 0.03137255
v 414636.18175134 1450344.77174971 13.00000000 0.91764706 0.70196078 0.03137255
f 4 5 6
f 1 2 3
f 4 6 1
f 1 3 4
f 12 11 10
f 9 8 7
f 7 12 10
f 10 9 7
f 7 8 1
f 1 8 2
f 8 9 2
f 2 9 3
f 9 10 3
f 3 10 4
f 10 11 4
f 4 11 5
f 12 7 6
f 6 7 1
f 11 12 5
f 5 12 6

