# https://github.com/mikedh/trimesh
v 414643.03175134 1450316.71775542 10.50000000 0.02352941 0.71372549 0.83137255
v 414643.03175134 1450315.51775542 10.50000000 0.02352941 0.71372549 0.83137255
v 414611.98715862 1450315.51775542 10.50000000 0.02352941 0.71372549 0.83137255
v 414611.38715862 1450315.51775542 10.50000000 0.02352941 0.71372549 0.83137255
v 414611.38715862 1450316.71775542 10.50000000 0.02352941 0.71372549 0.83137255
v 414642.43175134 1450316.71775542 10.50000000 0.02352941 0.71372549 0.83137255
v 414643.03175134 1450316.71775542 11.50000000 0.02352941 0.71372549 0.83137255
v 414643.03175134 1450315.51775542 11.50000000 0.02352941 0.71372549 0.83137255
v 414611.98715862 1450315.51775542 11.50000000 0.02352941 0.71372549 0.83137255
v 414611.38715862 1450315.51775542 11.50000000 0.02352941 0.71372549 0.83137255
v 414611.38715862 1450316.71775542 11.50000000 0.02352941 0.71372549 0.83137255
v 414642.43175134 1450316.71775542 11.50000000 0.02352941 0.71372549 0.83137255
f 4 5 6
f 1 2 3
f 4 6 1
f 1 3 4
f 12 11 10
f 9 8 7
f 7 12 10
f 10 9 7
f 7 8 1
f 1 8 2
f 8 9 2
f 2 9 3
f 9 10 3
f 3 10 4
f 10 11 4
f 4 11 5
f 12 7 6
f 6 7 1
f 11 12 5
f 5 12 6

